# xmcd
#
# Track frame offsets: 
#        150
#        23437
#        40556
#        56734
#        83537
#        105526
#        122673
#        140006
#        159799
#        181003
#        200024
#        223282
#        244766
#
# Disc length: 3552 seconds
#
# Revision: 0
# Processed by: cddbd v1.5.2PL0 Copyright (c) Steve Scherf et al.
# Submitted via: ExactAudioCopy v1.0b1
#
DISCID=a40dde0d
DTITLE=志方あきこ - Istoria～Kalliope～
DYEAR=2012
DGENRE=Vocal
TTITLE0=Thrylos - 伝承 -　
TTITLE1=Istoria
TTITLE2=ピエリス
TTITLE3=カササギ
TTITLE4=セイレーン
TTITLE5=君の名前
TTITLE6=ヒュメン
TTITLE7=エウリュディケ
TTITLE8=激情
TTITLE9=終の果て
TTITLE10=星の灯
TTITLE11=テティス
TTITLE12=英雄葬
EXTD=
EXTT0=
EXTT1=
EXTT2=
EXTT3=
EXTT4=
EXTT5=
EXTT6=
EXTT7=
EXTT8=
EXTT9=
EXTT10=
EXTT11=
EXTT12=
PLAYORDER=
